<svg xmlns="http://www.w3.org/2000/svg" width="32" height="32" viewBox="0 0 32 32">
  <!-- Navy background with border radius -->
  <rect width="32" height="32" rx="6" ry="6" fill="#1D2B40"/>
  
  <!-- White S&S logo scaled and centered -->
  <g transform="translate(4, 4) scale(0.03125)">
    <path fill="#ffffff" d="M 370.632812 94.507812 C 365.476562 95.59375 360.691406 98.070312 333.875 113.535156 L 271.875 149.28125 C 132.1875 229.816406 147.835938 220.601562 143.730469 224.722656 C 139.394531 229.074219 136.476562 233.652344 134.53125 239.167969 L 132.78125 244.125 L 132.765625 333.90625 L 132.75 423.691406 L 152.4375 412.363281 C 196.402344 387.074219 253.730469 353.902344 263.625 348.03125 C 266.925781 346.070312 277.554688 339.902344 287.25 334.320312 C 304.257812 324.511719 321.257812 314.683594 338.25 304.84375 C 356.605469 294.214844 374.664062 283.773438 378.375 281.644531 C 386.816406 276.800781 431.257812 251.046875 457.089844 236.035156 C 467.796875 229.808594 477.75 224.289062 479.214844 223.765625 C 482.433594 222.617188 486.273438 222.503906 489.617188 223.460938 C 491.910156 224.121094 539.527344 251.253906 539.078125 251.644531 C 538.964844 251.742188 534.148438 254.503906 528.375 257.78125 C 507.789062 269.460938 402.117188 330.273438 384.460938 340.601562 C 379.96875 343.226562 376.304688 345.6875 376.320312 346.074219 C 376.332031 346.457031 382.199219 350.121094 389.359375 354.214844 C 396.519531 358.308594 409.847656 366.011719 418.976562 371.328125 C 428.109375 376.648438 435.898438 381 436.285156 381 C 436.671875 381 456.03125 369.988281 479.308594 356.535156 C 527.871094 328.457031 550.726562 315.300781 590.25 292.679688 C 605.71875 283.828125 620.316406 275.414062 622.6875 273.988281 L 627 271.390625 L 627 258.832031 C 627 245.070312 626.367188 241.664062 622.332031 233.667969 C 618.417969 225.914062 613.46875 221.855469 595.125 211.359375 C 586.050781 206.167969 569.007812 196.375 557.25 189.59375 C 545.492188 182.8125 525.414062 171.246094 512.625 163.886719 C 499.835938 156.527344 488.824219 150.167969 488.15625 149.753906 C 487.207031 149.171875 484.605469 150.355469 476.53125 155.054688 C 431.597656 181.183594 361.328125 221.558594 212.8125 306.578125 L 195.75 316.34375 L 195.75 295.875 C 195.75 272.199219 196.335938 268.941406 201.992188 261.257812 C 205.902344 255.953125 208.378906 254.25 231.375 241.078125 C 254.054688 228.089844 327.871094 185.589844 347.25 174.363281 C 372.242188 159.886719 413.054688 136.367188 425.8125 129.089844 C 432.515625 125.265625 437.988281 121.910156 437.976562 121.632812 C 437.9375 120.699219 396.371094 97.515625 391.84375 95.902344 C 386.800781 94.105469 375.917969 93.390625 370.632812 94.507812 M 608.25 343.144531 C 598.746094 348.617188 589.246094 354.09375 579.75 359.582031 C 574.179688 362.804688 551.738281 375.742188 529.875 388.332031 C 508.011719 400.921875 480.167969 417.03125 468 424.132812 C 451.015625 434.027344 434.015625 443.902344 417 453.75 C 405 460.691406 393 467.632812 381 474.585938 C 377.082031 476.855469 369.65625 481.144531 364.5 484.117188 C 355.746094 489.167969 346.996094 494.226562 338.25 499.292969 C 328.96875 504.667969 320.195312 509.730469 318.75 510.542969 C 317.304688 511.355469 308.023438 516.710938 298.125 522.445312 L 280.125 532.875 L 268.125 532.875 L 252.375 523.464844 C 243.710938 518.289062 233.171875 512.042969 228.949219 509.589844 C 224.730469 507.132812 221.269531 504.929688 221.261719 504.695312 C 221.257812 504.457031 238.210938 494.515625 258.9375 482.601562 C 279.664062 470.691406 307.425781 454.660156 320.625 446.980469 C 333.824219 439.300781 354.414062 427.335938 366.375 420.390625 C 378.335938 413.445312 388.734375 407.347656 389.480469 406.84375 C 390.945312 405.847656 389.925781 405.21875 347.910156 381.1875 L 330.949219 371.484375 L 326.535156 374.085938 C 322.773438 376.300781 293.929688 392.941406 228.375 430.710938 C 220.539062 435.226562 201.300781 446.261719 185.625 455.234375 C 169.949219 464.203125 151.609375 474.742188 144.871094 478.648438 L 132.613281 485.75 L 132.714844 498.648438 C 132.792969 509.21875 133.082031 512.417969 134.308594 516.390625 C 136.105469 522.199219 140.871094 529.40625 145.5 533.300781 C 147.355469 534.863281 164.570312 545.222656 183.75 556.324219 C 224.789062 580.074219 258.433594 599.648438 266.089844 604.230469 C 269.09375 606.027344 271.726562 607.5 271.941406 607.5 C 272.15625 607.5 292.308594 595.90625 316.726562 581.730469 C 360.402344 556.382812 369.871094 550.902344 448.5 505.445312 C 470.15625 492.929688 504.917969 472.824219 525.75 460.769531 L 563.625 438.855469 L 563.824219 458.488281 C 564.050781 480.417969 563.675781 483.445312 559.792969 491.207031 C 556.046875 498.699219 551.734375 502.183594 532.429688 513.324219 C 523.949219 518.21875 515.472656 523.121094 507 528.035156 L 470.625 549.164062 C 455.363281 558.03125 433.761719 570.511719 422.625 576.898438 C 411.488281 583.28125 387.523438 597.105469 369.375 607.617188 C 351.226562 618.128906 333.089844 628.5625 329.078125 630.800781 C 325.066406 633.042969 321.777344 635.089844 321.765625 635.351562 C 321.75 635.84375 357.046875 656.757812 363.066406 659.820312 C 370.824219 663.769531 382.242188 664.894531 391.15625 662.597656 C 396.796875 661.140625 393.082031 663.277344 558.375 566.488281 C 574.617188 556.972656 590.867188 547.464844 607.125 537.960938 C 613.285156 534.375 620.042969 527.585938 622.722656 522.300781 C 627.238281 513.390625 627.023438 518.648438 626.816406 421.453125 L 626.625 332.5625 Z M 608.25 343.144531 " fill-opacity="1" fill-rule="evenodd"/>
  </g>
</svg>
